name Walk4.mot
datacolumns 19
datarows 25
range 1.45500000 1.57500000
endheader

                time	   L_ground_force_vx	   L_ground_force_vy	   L_ground_force_vz	   L_ground_force_px	   L_ground_force_py	   L_ground_force_pz	   R_ground_force_vx	   R_ground_force_vy	   R_ground_force_vz	   R_ground_force_px	   R_ground_force_py	   R_ground_force_pz	   L_ground_torque_x	   L_ground_torque_y	   L_ground_torque_z	   R_ground_torque_x	   R_ground_torque_y	   R_ground_torque_z	
          1.45500000	          0.04135972	          0.09908396	         -0.00581441	         -0.00037884	          0.00000000	         -0.00003854	        -22.31527380	        714.72977100	        -42.14402443	          0.17822556	          0.00000000	          0.09532374	          0.00000000	         -0.00027340	          0.00000000	          0.00000000	          1.96699528	          0.00000000	
          1.46000000	          0.02889822	          0.07020867	         -0.00575937	         -0.00034281	          0.00000000	         -0.00003525	        -21.00319592	        707.60185200	        -41.84792914	          0.18059342	          0.00000000	          0.09558961	          0.00000000	         -0.00025354	          0.00000000	          0.00000000	          1.91190962	          0.00000000	
          1.46500000	          0.01862140	          0.04613885	         -0.00526858	         -0.00029258	          0.00000000	         -0.00003035	        -19.72666578	        701.03848509	        -41.62506260	          0.18296830	          0.00000000	          0.09585862	          0.00000000	         -0.00022076	          0.00000000	          0.00000000	          1.87326964	          0.00000000	
          1.47000000	          0.01055835	          0.02705432	         -0.00453717	         -0.00023724	          0.00000000	         -0.00002481	        -18.47647871	        695.13087350	        -41.46347340	          0.18534420	          0.00000000	          0.09612816	          0.00000000	         -0.00018227	          0.00000000	          0.00000000	          1.84931253	          0.00000000	
          1.47500000	          0.00455264	          0.01267611	         -0.00370929	         -0.00018298	          0.00000000	         -0.00001929	        -17.24503388	        689.95155072	        -41.34820464	          0.18771569	          0.00000000	          0.09639665	          0.00000000	         -0.00014318	          0.00000000	          0.00000000	          1.83810113	          0.00000000	
          1.48000000	          0.00034123	          0.00245311	         -0.00288503	         -0.00013372	          0.00000000	         -0.00001423	        -16.02581146	        685.54994476	        -41.26347440	          0.19007768	          0.00000000	          0.09666320	          0.00000000	         -0.00010679	          0.00000000	          0.00000000	          1.83739936	          0.00000000	
          1.48500000	         -0.00238645	         -0.00429671	         -0.00212827	         -0.00009155	          0.00000000	         -0.00000985	        -14.81391948	        681.95449624	        -41.19537198	          0.19242746	          0.00000000	          0.09692646	          0.00000000	         -0.00007500	          0.00000000	          0.00000000	          1.84475964	          0.00000000	
          1.49000000	         -0.00394692	         -0.00828542	         -0.00147466	         -0.00005727	          0.00000000	         -0.00000627	        -13.60580154	        679.17433196	        -41.13440909	          0.19476323	          0.00000000	          0.09718535	          0.00000000	         -0.00004869	          0.00000000	          0.00000000	          1.85752084	          0.00000000	
          1.49500000	         -0.00463547	         -0.01018803	         -0.00093888	         -0.00003076	          0.00000000	         -0.00000348	        -12.39854585	        677.20072340	        -41.07683869	          0.19708321	          0.00000000	          0.09743915	          0.00000000	         -0.00002796	          0.00000000	          0.00000000	          1.87332960	          0.00000000	
          1.50000000	         -0.00471041	         -0.01060238	         -0.00052105	         -0.00001132	          0.00000000	         -0.00000141	        -11.18933337	        676.01048147	        -41.02415400	          0.19938621	          0.00000000	          0.09768648	          0.00000000	         -0.00001246	          0.00000000	          0.00000000	          1.89018492	          0.00000000	
          1.50500000	         -0.00438593	         -0.01002958	         -0.00021189	          0.00000204	          0.00000000	          0.00000003	         -9.97411560	        675.56980537	        -40.98293652	          0.20167055	          0.00000000	          0.09792443	          0.00000000	         -0.00000153	          0.00000000	          0.00000000	          1.90634911	          0.00000000	
          1.51000000	         -0.00383098	         -0.00886903	          0.00000313	          0.00001044	          0.00000000	          0.00000095	         -8.74839249	        675.83860949	        -40.96338794	          0.20393485	          0.00000000	          0.09815000	          0.00000000	          0.00000560	          0.00000000	          0.00000000	          1.92031515	          0.00000000	
          1.51500000	         -0.00317211	         -0.00742337	          0.00014077	          0.00001501	          0.00000000	          0.00000146	         -7.50815984	        676.77244995	        -40.97694764	          0.20617991	          0.00000000	          0.09836014	          0.00000000	          0.00000972	          0.00000000	          0.00000000	          1.93042208	          0.00000000	
          1.52000000	         -0.00249872	         -0.00590919	          0.00021790	          0.00001675	          0.00000000	          0.00000167	         -6.25017197	        678.32721312	        -41.03472198	          0.20840834	          0.00000000	          0.09855123	          0.00000000	          0.00001160	          0.00000000	          0.00000000	          1.93498896	          0.00000000	
          1.52500000	         -0.00186926	         -0.00447083	          0.00025013	          0.00001654	          0.00000000	          0.00000168	         -4.97257542	        680.46182903	        -41.14663846	          0.21062085	          0.00000000	          0.09872051	          0.00000000	          0.00001189	          0.00000000	          0.00000000	          1.93265796	          0.00000000	
          1.53000000	         -0.00131777	         -0.00319485	          0.00025101	          0.00001510	          0.00000000	          0.00000155	         -3.67538405	        683.14363218	        -41.32117403	          0.21281940	          0.00000000	          0.09886742	          0.00000000	          0.00001113	          0.00000000	          0.00000000	          1.92219905	          0.00000000	
          1.53500000	         -0.00085989	         -0.00212391	          0.00023173	          0.00001298	          0.00000000	          0.00000134	         -2.36077490	        686.34590247	        -41.56461918	          0.21500660	          0.00000000	          0.09899290	          0.00000000	          0.00000977	          0.00000000	          0.00000000	          1.90238671	          0.00000000	
          1.54000000	         -0.00049825	         -0.00126917	          0.00020104	          0.00001059	          0.00000000	          0.00000111	         -1.03179104	        690.04256076	        -41.88062937	          0.21718363	          0.00000000	          0.09909908	          0.00000000	          0.00000812	          0.00000000	          0.00000000	          1.87178728	          0.00000000	
          1.54500000	         -0.00022694	         -0.00062066	          0.00016545	          0.00000823	          0.00000000	          0.00000087	          0.30804751	        694.20552177	        -42.27179504	          0.21935160	          0.00000000	          0.09918808	          0.00000000	          0.00000642	          0.00000000	          0.00000000	          1.82880711	          0.00000000	
          1.55000000	         -0.00003500	         -0.00015570	          0.00012955	          0.00000606	          0.00000000	          0.00000064	          1.65478205	        698.80263132	        -42.74039246	          0.22151102	          0.00000000	          0.09926087	          0.00000000	          0.00000482	          0.00000000	          0.00000000	          1.77187801	          0.00000000	
          1.55500000	          0.00009086	          0.00015479	          0.00009628	          0.00000419	          0.00000000	          0.00000045	          3.00564401	        703.79545864	        -43.28770753	          0.22366025	          0.00000000	          0.09931564	          0.00000000	          0.00000342	          0.00000000	          0.00000000	          1.69915607	          0.00000000	
          1.56000000	          0.00016438	          0.00034165	          0.00006733	          0.00000266	          0.00000000	          0.00000029	          4.35989128	        709.14226475	        -43.91235746	          0.22579420	          0.00000000	          0.09934907	          0.00000000	          0.00000225	          0.00000000	          0.00000000	          1.60826554	          0.00000000	
          1.56500000	          0.00019853	          0.00043447	          0.00004344	          0.00000147	          0.00000000	          0.00000016	          5.72006638	        714.80324238	        -44.60868170	          0.22790540	          0.00000000	          0.09935832	          0.00000000	          0.00000132	          0.00000000	          0.00000000	          1.49623715	          0.00000000	
          1.57000000	          0.00020472	          0.00045962	          0.00002468	          0.00000059	          0.00000000	          0.00000007	          7.09219541	        720.74247609	        -45.36472382	          0.22998291	          0.00000000	          0.09934109	          0.00000000	          0.00000062	          0.00000000	          0.00000000	          1.35987447	          0.00000000	
          1.57500000	          0.00019251	          0.00043941	          0.00001070	         -0.00000002	          0.00000000	          0.00000001	          8.48418305	        726.93400046	        -46.16027936	          0.23201196	          0.00000000	          0.09929542	          0.00000000	          0.00000012	          0.00000000	          0.00000000	          1.19585587	          0.00000000	
